<?xml version="1.0" standalone="no"?>
<!DOCTYPE svg PUBLIC "-//W3C//DTD SVG 20010904//EN"
 "http://www.w3.org/TR/2001/REC-SVG-20010904/DTD/svg10.dtd">
<svg version="1.0" xmlns="http://www.w3.org/2000/svg"
 width="1121.000000pt" height="1067.000000pt" viewBox="0 0 1121.000000 1067.000000"
 preserveAspectRatio="xMidYMid meet">

<g transform="translate(0.000000,1067.000000) scale(0.100000,-0.100000)"
fill="#000000" stroke="none">
<path d="M4893 10452 c-35 -8 -63 -21 -63 -27 0 -20 -26 -25 -48 -9 -18 12
-32 12 -111 0 -49 -8 -104 -22 -122 -31 -25 -14 -36 -15 -53 -5 -17 8 -39 7
-99 -5 -43 -9 -82 -13 -87 -10 -5 3 -11 2 -14 -3 -3 -5 -35 -17 -71 -27 -48
-14 -71 -26 -82 -45 -8 -14 -31 -36 -52 -49 -32 -21 -41 -22 -76 -13 -32 9
-42 8 -48 -4 -5 -9 -17 -12 -31 -8 -18 4 -25 1 -29 -18 -8 -27 17 -51 45 -42
11 3 18 0 18 -8 0 -18 -91 -60 -355 -163 -121 -47 -241 -96 -268 -110 -26 -13
-53 -22 -61 -19 -7 3 -19 -2 -26 -11 -7 -9 -27 -23 -44 -31 -17 -8 -49 -25
-71 -39 -22 -14 -53 -25 -68 -25 -15 0 -30 -6 -33 -14 -10 -25 -35 -27 -56 -4
l-19 23 6 -29 c5 -26 4 -28 -9 -17 -13 11 -16 11 -16 -3 0 -15 -7 -17 -55 -11
-68 9 -77 -10 -10 -21 25 -3 45 -9 45 -13 0 -3 -12 -14 -26 -24 -19 -14 -34
-17 -61 -12 -21 4 -33 3 -29 -3 3 -6 -1 -13 -10 -16 -9 -3 -14 -13 -10 -21 9
-24 -14 -29 -42 -8 -32 24 -92 38 -92 22 0 -6 -8 -9 -19 -6 -11 2 -31 -5 -47
-19 -16 -13 -41 -23 -56 -24 -18 0 -28 -5 -28 -15 0 -8 -8 -19 -19 -24 -10 -6
-51 -37 -91 -71 -39 -33 -78 -60 -86 -60 -30 0 -74 -31 -104 -74 -31 -46 -37
-62 -20 -51 6 3 10 2 10 -4 0 -16 -34 -31 -56 -25 -14 4 -39 -10 -79 -41 -33
-26 -70 -51 -82 -55 -12 -5 -26 -24 -33 -44 -9 -28 -17 -36 -36 -36 -18 0 -31
-10 -45 -35 -12 -20 -29 -35 -39 -35 -25 0 -60 -47 -60 -79 0 -17 -11 -38 -28
-55 -26 -24 -30 -25 -42 -11 -16 20 -42 19 -38 -1 2 -9 -6 -21 -16 -28 -28
-16 -63 -57 -77 -89 -8 -18 -22 -30 -40 -34 -42 -8 -55 -28 -40 -60 7 -14 8
-29 4 -32 -4 -3 -21 -23 -37 -44 -19 -26 -35 -38 -49 -36 -31 3 -57 -10 -57
-29 0 -12 3 -13 12 -4 7 7 16 12 20 12 18 0 6 -28 -22 -55 -26 -24 -33 -27
-40 -15 -5 8 -12 11 -17 7 -4 -4 -2 -17 5 -28 14 -22 17 -17 -65 -118 -26 -32
-43 -63 -43 -79 0 -15 -15 -44 -38 -71 -21 -25 -50 -68 -66 -94 -15 -26 -41
-63 -57 -81 -16 -19 -29 -38 -29 -44 0 -5 -7 -12 -15 -16 -8 -3 -15 -16 -15
-28 0 -13 -9 -29 -19 -35 -11 -7 -22 -26 -26 -42 -4 -17 -17 -39 -31 -50 -13
-10 -24 -26 -24 -35 0 -23 -37 -93 -54 -103 -7 -4 -19 -32 -26 -60 -14 -63
-81 -170 -112 -182 l-22 -8 22 -12 c29 -15 28 -29 -6 -66 -16 -16 -39 -57 -51
-90 -12 -33 -31 -82 -43 -110 -11 -27 -28 -82 -38 -121 -10 -39 -23 -81 -29
-93 -7 -12 -9 -26 -6 -31 4 -6 3 -20 0 -31 -5 -16 -12 -19 -31 -15 -29 8 -31
-5 -6 -28 18 -16 18 -18 -6 -66 -22 -45 -38 -97 -46 -155 -6 -34 -18 -55 -32
-55 -8 0 -14 -6 -14 -14 0 -19 -51 -8 -70 16 -17 21 -45 16 -54 -9 -10 -24 4
-34 42 -32 21 1 51 2 69 1 l31 -2 0 -87 c0 -49 -4 -95 -9 -104 -5 -9 -11 -75
-15 -145 -3 -71 -10 -149 -15 -172 -10 -45 -4 -102 13 -136 8 -14 6 -21 -6
-28 -12 -7 -13 -13 -4 -34 9 -19 9 -33 0 -57 -15 -41 7 -164 29 -159 23 6 59
-8 59 -23 0 -8 8 -23 18 -33 10 -10 24 -44 31 -75 11 -50 15 -56 31 -47 9 5
20 16 24 25 8 22 37 18 43 -5 5 -19 49 -50 72 -50 21 0 43 144 42 285 0 293 4
422 15 436 6 8 15 35 18 62 4 27 12 47 20 47 6 0 18 24 25 53 19 83 24 117 15
117 -5 0 -9 29 -9 65 0 46 3 65 12 65 12 0 17 28 14 76 -1 11 7 32 19 46 11
14 20 33 20 41 0 8 9 17 21 20 11 3 19 11 18 19 -1 7 3 26 9 41 7 16 12 35 12
43 0 8 6 14 13 14 8 0 8 3 1 8 -20 13 -11 66 14 78 19 9 20 13 8 17 -9 4 -16
13 -16 22 0 18 1 18 35 5 27 -10 56 -3 38 9 -16 10 -31 66 -26 94 6 31 10 32
37 12 36 -27 52 -17 23 13 -15 16 -25 31 -21 34 3 4 8 25 10 48 4 42 19 78 39
95 7 6 16 23 19 39 7 28 13 30 58 11 15 -6 16 -4 5 18 -6 14 -15 23 -19 21
-15 -10 -8 58 11 94 10 20 16 43 14 50 -3 7 3 12 14 12 16 0 19 6 15 28 -4 29
77 196 129 262 14 19 30 48 33 64 4 16 15 30 26 33 13 4 20 14 20 31 0 34 59
125 76 118 9 -3 14 2 14 13 0 10 7 22 16 25 9 3 14 12 11 20 -6 16 17 53 49
79 13 9 33 34 45 55 13 20 31 43 41 50 10 7 18 20 18 29 0 9 17 35 38 59 20
23 57 70 81 104 95 134 520 559 637 637 21 15 61 46 89 71 27 24 70 58 95 75
25 17 62 45 83 64 20 18 45 33 55 33 9 0 23 9 30 20 7 11 20 20 30 20 10 0 32
14 51 30 69 64 313 211 518 314 342 171 713 305 1047 380 65 15 128 32 140 38
12 7 28 13 36 14 48 8 127 39 142 55 13 16 21 17 43 9 40 -15 80 -12 123 10
21 11 91 32 156 46 66 14 139 35 163 45 30 13 68 19 115 19 54 0 79 5 104 21
19 11 38 18 44 14 6 -3 17 1 25 9 9 8 21 13 28 10 16 -6 216 12 241 22 14 5
17 4 11 -5 -5 -10 -2 -12 11 -8 39 12 150 28 172 25 16 -2 29 5 39 20 l16 23
-42 -7 c-32 -5 -41 -4 -39 6 4 16 -53 30 -84 22 -16 -4 -19 -2 -13 8 6 10 1
12 -25 7 -18 -4 -43 -7 -57 -7 -13 0 -22 -4 -18 -9 3 -5 1 -12 -5 -16 -5 -3
-10 -2 -10 4 0 6 -16 13 -35 17 -19 3 -38 10 -40 15 -3 4 -35 5 -70 2 -41 -4
-116 1 -200 12 -106 14 -140 16 -160 7 -18 -8 -32 -9 -45 -2 -30 16 -76 12
-124 -11 l-44 -22 -33 20 c-32 19 -37 20 -96 5z m902 -52 c3 -5 2 -10 -4 -10
-5 0 -13 5 -16 10 -3 6 -2 10 4 10 5 0 13 -4 16 -10z m-3087 -842 c-3 -7 -15
-15 -28 -16 -21 -3 -22 -2 -11 12 16 19 44 21 39 4z"/>
<path d="M6780 10437 c0 -26 -6 -39 -26 -52 -45 -29 -84 -79 -80 -99 3 -11 0
-28 -5 -38 -6 -10 -7 -28 -4 -39 7 -21 9 -21 66 -3 9 3 19 -4 27 -20 8 -18 22
-27 49 -32 21 -3 45 -15 54 -26 15 -20 16 -20 61 2 88 41 92 131 11 242 -40
56 -79 86 -122 94 -30 6 -31 5 -31 -29z"/>
<path d="M7087 10342 c-16 -17 -15 -20 17 -51 l34 -33 32 23 32 24 -33 27
c-39 33 -60 35 -82 10z"/>
<path d="M7412 10128 c-20 -20 -14 -28 13 -16 13 6 22 15 19 19 -7 12 -18 11
-32 -3z"/>
<path d="M6268 9913 c-45 -52 -51 -117 -15 -151 63 -59 157 20 123 103 -24 58
-78 82 -108 48z"/>
<path d="M7465 9715 c-29 -10 -49 -12 -74 -5 -38 10 -89 3 -111 -15 -8 -7 -62
-18 -120 -25 -179 -21 -412 -76 -614 -146 -105 -36 -231 -80 -281 -96 -49 -17
-100 -39 -111 -50 -12 -11 -56 -33 -98 -49 -95 -37 -345 -190 -360 -221 -6
-13 -30 -29 -55 -38 -32 -11 -46 -23 -56 -46 -9 -23 -24 -35 -49 -44 -31 -10
-44 -25 -84 -93 -32 -55 -55 -84 -74 -91 -14 -5 -36 -26 -47 -47 -12 -22 -31
-39 -46 -43 -17 -4 -43 -33 -81 -90 -30 -46 -66 -88 -78 -94 -16 -7 -25 -22
-29 -48 -3 -20 -16 -47 -27 -59 -12 -12 -57 -107 -100 -210 -62 -145 -89 -198
-123 -235 -46 -51 -59 -84 -79 -197 -9 -57 -9 -80 0 -106 17 -47 16 -97 -3
-97 -12 0 -13 -4 -3 -25 9 -20 8 -28 -5 -43 -23 -25 -22 -28 16 -62 l32 -30
-25 -21 c-14 -11 -33 -26 -42 -34 -14 -12 -15 -19 -5 -44 10 -27 13 -28 21
-13 5 9 10 19 12 21 2 2 19 -10 39 -28 27 -24 32 -32 20 -36 -54 -17 -52 -15
-32 -26 24 -14 21 -29 -15 -79 -21 -28 -27 -42 -16 -38 18 7 28 -9 28 -48 0
-14 10 -30 25 -40 27 -18 25 -34 -6 -34 -14 0 -19 -7 -19 -25 0 -16 6 -25 15
-25 11 0 15 -13 15 -53 0 -46 4 -57 29 -81 19 -18 34 -49 46 -93 11 -40 30
-79 48 -100 27 -31 29 -36 17 -59 -12 -22 -11 -30 8 -70 12 -25 20 -50 17 -55
-4 -5 -21 -9 -39 -9 -36 0 -66 -23 -46 -35 6 -4 18 -1 26 6 22 18 45 -9 46
-52 1 -56 36 -79 63 -42 15 20 1 41 122 -182 108 -201 190 -317 231 -327 23
-6 37 -19 50 -44 11 -24 25 -37 44 -41 15 -3 30 -14 34 -25 12 -40 162 -158
200 -158 15 0 29 -11 41 -31 19 -34 190 -163 263 -199 25 -12 53 -31 62 -41
10 -10 38 -32 63 -49 25 -17 45 -35 45 -40 0 -5 51 -37 114 -70 63 -33 120
-67 126 -75 7 -8 21 -15 30 -15 10 0 42 -20 72 -45 63 -54 88 -62 142 -46 23
7 57 15 77 18 39 5 43 -1 62 -85 6 -25 -16 -42 -57 -42 -14 0 -28 -4 -31 -10
-3 -5 0 -10 8 -10 8 0 37 -26 65 -59 51 -58 102 -91 141 -91 17 0 21 5 19 31
-2 18 2 33 7 35 19 7 74 -35 100 -76 14 -22 31 -40 39 -40 7 0 47 -29 89 -65
42 -36 82 -65 88 -65 7 0 26 -15 43 -33 25 -28 41 -35 85 -40 62 -7 79 -18 56
-37 -21 -18 -19 -27 9 -34 13 -3 29 -18 36 -35 15 -37 41 -49 55 -25 18 30 46
55 58 51 21 -7 20 -47 -2 -65 -18 -15 -19 -20 -8 -42 7 -13 30 -36 51 -51 21
-14 45 -38 53 -53 9 -17 20 -25 29 -22 8 3 20 9 28 12 9 3 17 -2 20 -14 10
-30 33 -45 79 -51 40 -6 41 -7 43 -50 l2 -43 -44 6 -45 6 32 -40 c43 -53 55
-52 50 2 -2 13 5 18 25 18 27 0 27 0 20 -55 -5 -45 -3 -55 9 -55 19 0 19 -15
-1 -44 -14 -23 -14 -25 8 -31 34 -11 59 -36 53 -55 -3 -9 6 -33 20 -54 14 -20
32 -67 41 -104 19 -75 38 -114 90 -187 31 -43 35 -56 31 -89 -3 -22 -15 -52
-27 -69 -16 -21 -19 -32 -11 -40 21 -21 12 -89 -20 -154 -17 -35 -36 -95 -42
-133 -9 -58 -15 -73 -36 -86 -36 -23 -57 -49 -91 -115 -32 -62 -42 -69 -103
-69 -58 0 -68 -10 -78 -71 -11 -69 -67 -152 -134 -199 -27 -19 -76 -60 -108
-91 -55 -54 -61 -57 -121 -64 -50 -5 -74 -14 -121 -46 -32 -22 -70 -42 -84
-46 -14 -3 -61 -23 -106 -44 -44 -21 -121 -51 -170 -68 -50 -16 -116 -39 -147
-50 -37 -14 -82 -21 -125 -21 -66 0 -212 -32 -296 -65 -52 -21 -90 -19 -122 6
-22 18 -29 19 -35 9 -7 -11 -15 -10 -43 5 -33 17 -38 17 -79 3 -23 -9 -81 -19
-127 -22 -79 -5 -88 -4 -130 21 -24 14 -60 29 -79 34 -41 9 -156 -7 -196 -28
-26 -14 -30 -13 -38 1 -5 9 -20 16 -33 16 -24 0 -25 2 -25 69 0 47 4 72 14 80
11 10 16 8 21 -9 7 -22 54 -46 64 -33 3 4 15 13 26 20 11 6 18 17 16 25 -2 7
-6 32 -9 56 -4 35 -9 43 -30 49 -16 4 -27 2 -30 -5 -2 -7 -8 -9 -14 -6 -6 4
-14 1 -18 -6 -11 -17 -30 -3 -30 22 0 18 -4 20 -36 15 -28 -5 -43 -1 -62 13
-14 12 -40 20 -61 20 -25 0 -40 6 -49 20 -14 24 -32 26 -32 5 0 -23 -19 -18
-29 9 -9 22 -16 24 -113 29 -86 4 -105 2 -115 -11 -15 -19 -18 -17 -46 39 -21
42 -30 49 -118 89 -15 7 -32 22 -37 34 -6 11 -11 15 -11 9 -1 -22 -48 -15 -54
7 -3 12 -11 18 -20 15 -9 -4 -19 5 -27 25 -15 37 -39 51 -82 49 -38 -3 -119
35 -162 76 -15 14 -46 38 -68 51 -22 14 -42 33 -45 42 -5 17 -161 121 -240
161 -24 12 -43 26 -43 31 0 15 -61 80 -75 80 -7 0 -40 22 -72 50 -32 27 -73
57 -90 65 -18 9 -33 20 -33 25 0 5 -30 43 -66 84 -52 60 -72 76 -94 76 -32 0
-45 13 -99 107 -29 51 -41 83 -41 111 0 27 -5 42 -16 46 -12 5 -15 2 -10 -11
9 -23 -4 -9 -18 19 -6 13 -22 28 -35 33 -14 6 -37 38 -61 86 -21 41 -45 81
-54 88 -13 11 -17 9 -27 -13 -7 -14 -20 -26 -31 -26 -13 0 -18 -7 -18 -25 0
-17 -15 -41 -45 -71 -25 -24 -45 -40 -45 -34 0 6 -34 10 -85 10 -50 0 -85 -4
-85 -10 0 -5 -20 -10 -45 -10 -25 0 -45 5 -45 10 0 6 -9 10 -20 10 -11 0 -20
5 -20 10 0 6 -25 10 -55 10 -30 0 -55 -4 -55 -10 0 -6 -28 -10 -65 -10 -37 0
-65 4 -65 10 0 6 -11 10 -25 10 -14 0 -25 -4 -25 -10 0 -6 -37 -10 -90 -10
-53 0 -90 -4 -90 -10 0 -5 -11 -10 -25 -10 -14 0 -25 5 -25 10 0 6 -9 10 -20
10 -11 0 -20 5 -20 10 0 6 -38 10 -95 10 -52 0 -95 -4 -95 -8 0 -4 11 -46 25
-93 13 -46 25 -99 25 -116 0 -31 -2 -33 -37 -34 -21 -1 -30 -3 -20 -6 21 -6
22 -26 2 -43 -18 -15 -19 -39 -3 -94 14 -48 23 -56 64 -56 34 0 44 -13 44 -59
0 -33 18 -58 45 -63 14 -2 23 -16 31 -47 l10 -44 22 31 c14 19 18 33 12 37
-17 11 -11 35 9 35 27 0 42 23 35 57 -5 25 -2 31 21 41 39 18 57 8 84 -46 81
-159 121 -233 138 -259 11 -15 37 -61 58 -101 25 -48 58 -91 97 -127 44 -41
62 -66 73 -101 16 -55 27 -64 75 -64 49 0 60 -15 60 -76 0 -54 13 -75 33 -55
6 6 21 11 34 11 14 0 23 6 23 15 0 20 14 19 31 -1 11 -13 11 -23 -3 -59 -15
-43 -15 -44 6 -47 28 -4 32 -45 12 -105 -19 -56 -19 -53 -2 -53 14 0 30 -29
21 -38 -3 -3 -21 2 -40 11 -20 9 -50 17 -68 17 l-32 0 45 -39 c28 -24 49 -36
55 -30 5 5 18 9 30 9 11 0 29 7 39 15 34 25 42 22 158 -57 18 -12 37 -16 52
-12 18 4 24 1 29 -15 4 -17 0 -21 -18 -21 -19 0 -22 -4 -18 -21 4 -12 2 -20
-3 -18 -5 3 -21 11 -37 19 -22 11 -30 11 -40 1 -9 -10 -7 -17 13 -33 19 -15
34 -19 67 -15 44 5 53 -2 29 -22 -21 -17 -8 -48 22 -54 15 -3 35 -9 46 -13 13
-5 17 -3 14 6 -2 8 4 22 15 33 16 16 21 17 29 6 24 -36 29 -51 23 -69 -6 -18
-1 -20 53 -20 46 0 63 -4 77 -20 10 -11 23 -20 30 -20 17 0 48 -37 41 -49 -9
-15 63 -69 115 -86 26 -9 71 -33 101 -54 67 -48 111 -71 137 -71 11 0 33 -12
50 -26 17 -14 47 -28 68 -31 21 -3 49 -16 63 -28 33 -30 173 -85 216 -85 19 0
49 -7 65 -16 17 -8 67 -23 113 -33 45 -10 92 -24 104 -30 13 -7 32 -9 42 -6
11 4 45 -1 76 -10 31 -9 69 -18 84 -20 16 -2 37 -12 47 -22 17 -17 32 -19 104
-17 48 2 120 -4 169 -13 47 -9 168 -20 270 -23 102 -4 192 -9 200 -11 8 -2 31
0 51 5 23 5 45 4 58 -3 16 -9 28 -8 51 4 18 9 40 13 56 9 17 -5 40 1 72 19 51
27 179 58 254 61 33 2 55 9 71 24 27 26 40 27 57 7 17 -20 39 -19 92 5 40 17
98 34 189 54 28 6 52 46 42 72 -5 14 1 15 43 8 64 -11 91 -8 137 11 35 14 38
19 32 44 -5 26 -3 29 26 35 24 4 35 2 44 -11 12 -16 16 -15 59 7 40 22 61 42
39 39 -5 -1 -15 -1 -23 1 -11 1 -9 4 5 9 11 5 27 4 35 -1 18 -11 154 43 230
92 26 17 66 34 87 37 24 3 51 18 73 39 19 18 64 46 100 62 36 16 85 47 110 69
39 36 43 42 31 57 -11 13 -11 20 -3 28 7 7 12 20 12 30 0 10 6 18 14 18 7 0
16 9 19 20 4 14 14 20 34 20 19 0 50 16 93 50 103 80 139 102 160 95 10 -3 34
2 51 11 25 12 37 14 50 6 15 -9 34 6 123 98 98 102 129 124 90 65 -8 -13 -14
-38 -12 -56 3 -29 7 -33 57 -46 49 -12 56 -12 85 6 49 31 84 72 101 121 9 25
30 60 48 78 17 18 32 40 32 49 0 10 12 20 32 25 33 9 60 40 83 97 7 18 28 51
46 73 19 21 42 67 53 101 11 34 31 92 45 130 14 37 28 87 30 110 2 23 9 55 15
70 6 16 11 41 11 56 0 16 11 45 25 65 19 28 23 44 18 64 -4 15 -6 34 -5 42 1
9 -1 10 -4 3 -7 -15 -34 -5 -34 12 0 16 33 45 52 45 24 0 48 -33 41 -58 -4
-17 -1 -22 15 -22 17 0 22 9 28 56 7 59 1 176 -11 207 -4 9 -13 17 -21 17 -18
0 -18 14 1 30 21 17 19 36 -7 54 -19 14 -19 16 -5 22 24 9 21 36 -14 155 -43
146 -47 155 -76 168 -29 13 -43 3 -43 -31 0 -10 -9 -27 -20 -38 -11 -11 -19
-23 -17 -27 1 -5 -12 -9 -29 -11 -23 -2 -47 8 -95 41 -66 45 -82 74 -54 97 10
8 15 9 15 1 0 -15 35 -14 49 2 6 8 14 28 17 46 6 30 5 32 -17 27 -13 -3 -46
-3 -74 2 -45 6 -52 11 -69 45 -21 43 -17 54 13 35 34 -21 48 2 30 49 -13 33
-20 39 -53 43 -45 6 -49 11 -76 106 -11 40 -27 77 -35 84 -8 7 -15 18 -15 25
0 6 -9 20 -21 31 -12 10 -32 42 -46 69 -34 68 -107 171 -155 220 -132 135
-178 185 -178 194 0 6 -21 22 -47 37 -27 15 -82 61 -123 101 -53 52 -87 77
-121 88 -55 18 -74 36 -148 133 -30 40 -63 74 -72 77 -10 3 -41 32 -68 64 -28
32 -68 67 -89 76 -42 20 -102 73 -102 91 0 29 22 20 91 -37 70 -57 76 -60 114
-54 48 7 55 13 32 27 -29 16 -87 69 -87 79 0 38 102 -14 253 -128 31 -23 61
-43 65 -43 10 0 48 -38 87 -87 30 -36 46 -41 65 -18 11 14 6 23 -36 66 -27 28
-76 63 -109 80 -81 39 -102 60 -155 153 -54 95 -101 136 -309 274 -144 96
-182 126 -284 229 -29 28 -61 53 -72 55 -16 3 -19 11 -17 36 2 30 -1 34 -51
56 -47 20 -127 94 -127 117 0 4 -29 25 -64 48 -49 31 -76 58 -116 115 -29 41
-67 84 -86 95 -19 11 -43 36 -54 54 -11 18 -34 43 -51 56 -43 32 -192 335
-192 391 0 46 83 222 121 257 24 22 25 24 7 43 -18 20 -18 22 2 57 17 29 42
48 115 86 127 67 207 98 392 152 l159 47 221 -4 221 -3 95 -34 c110 -39 183
-74 223 -107 16 -13 34 -24 41 -24 7 0 23 -11 36 -25 13 -14 29 -25 35 -25 7
0 63 -56 125 -124 109 -121 113 -124 141 -114 16 5 29 14 29 19 0 4 18 13 40
19 22 6 40 15 40 20 0 6 6 10 14 10 7 0 26 12 42 28 16 15 36 26 46 24 11 -2
20 8 29 32 7 20 17 36 21 36 4 0 8 9 8 21 0 12 4 18 11 13 16 -9 29 15 29 54
0 17 5 32 10 32 6 0 10 13 10 29 0 17 5 33 10 36 6 3 10 17 10 30 0 13 4 25
10 27 5 2 11 45 12 96 1 50 5 92 10 92 4 0 8 10 8 23 0 13 6 29 13 36 10 11 9
14 -1 18 -10 4 -10 8 -2 18 7 8 12 40 12 72 0 32 5 64 11 71 10 13 14 34 22
119 4 44 10 58 36 81 27 24 30 31 20 49 -12 23 -15 63 -5 63 3 0 15 -11 26
-25 21 -27 48 -33 48 -11 0 19 57 66 81 66 10 0 19 5 19 11 0 6 11 25 25 41
17 20 24 37 19 50 -3 10 0 25 6 33 6 8 9 19 5 25 -3 5 -8 33 -10 62 -2 29 -8
54 -14 56 -6 2 -11 24 -11 48 0 25 -9 64 -20 86 -11 23 -20 49 -20 58 0 30
-67 95 -174 168 -82 57 -117 75 -156 81 -28 4 -58 15 -68 25 -10 9 -34 16 -53
16 -19 1 -45 7 -59 15 -14 8 -36 14 -50 15 -14 0 -40 9 -58 20 -43 26 -64 25
-92 -5 -29 -30 -56 -32 -65 -4 -6 19 -12 20 -63 15 -41 -5 -64 -2 -82 8 -52
31 -66 34 -114 25 -26 -5 -87 -10 -136 -13 -68 -3 -99 -9 -126 -25 -26 -16
-52 -21 -103 -21 -38 0 -88 -7 -111 -15 -23 -8 -57 -15 -75 -15 -19 0 -47 -8
-63 -17 -29 -17 -31 -17 -50 0 -11 10 -32 17 -50 15 -21 -1 -39 5 -55 20 -13
12 -32 22 -43 22 -30 0 -45 15 -38 34 8 21 145 86 181 86 13 0 41 9 61 19 62
33 171 51 302 51 131 0 143 -3 203 -57 30 -27 43 -32 60 -26 12 4 46 7 76 6
29 -2 61 1 70 6 16 10 5 17 -52 35 -10 3 -17 12 -14 19 3 8 24 11 73 9 39 -2
88 1 110 7 22 6 76 13 119 15 44 3 81 10 83 16 2 5 -2 12 -10 13 -7 2 -28 9
-45 15 -27 8 -35 7 -42 -5 -6 -12 -19 -15 -51 -10 -49 6 -58 13 -42 29 7 7 12
22 12 35 0 27 30 31 70 8 33 -19 59 -19 66 0 9 21 -16 51 -27 33 -7 -11 -12
-11 -29 0 -12 7 -30 10 -41 7 -12 -4 -21 -1 -25 9 -8 20 -38 21 -54 1 -7 -8
-18 -15 -25 -15 -23 0 -129 51 -153 73 -22 20 -35 22 -180 25 -119 2 -167 -1
-197 -13z m240 -23 c-3 -3 -11 0 -18 7 -9 10 -8 11 6 5 10 -3 15 -9 12 -12z
m85 -12 c0 -5 -2 -10 -4 -10 -3 0 -8 5 -11 10 -3 6 -1 10 4 10 6 0 11 -4 11
-10z m-725 -470 c-3 -5 -11 -10 -16 -10 -6 0 -7 5 -4 10 3 6 11 10 16 10 6 0
7 -4 4 -10z m340 -819 c7 -12 -12 -24 -25 -16 -11 7 -4 25 10 25 5 0 11 -4 15
-9z m56 -47 c11 -14 10 -18 -6 -30 -11 -8 -26 -12 -33 -9 -8 3 -22 5 -33 5
-27 0 -23 17 6 24 14 4 25 11 25 16 0 16 26 12 41 -6z m-107 -13 c7 -11 -22
-23 -36 -15 -6 4 -5 10 3 15 18 11 26 11 33 0z m394 -34 c4 -22 -27 -35 -39
-16 -5 8 -9 20 -9 27 0 20 44 10 48 -11z m-223 3 c3 -5 1 -10 -4 -10 -6 0 -11
5 -11 10 0 6 2 10 4 10 3 0 8 -4 11 -10z m175 -50 c0 -5 -5 -10 -11 -10 -5 0
-7 5 -4 10 3 6 8 10 11 10 2 0 4 -4 4 -10z m-332 -101 c34 -9 54 -20 58 -32 9
-29 0 -30 -51 -5 l-47 23 -19 -24 c-14 -17 -25 -22 -44 -17 -26 7 -32 20 -15
31 6 3 10 15 10 27 0 22 8 22 108 -3z m-488 -80 c0 -16 89 -52 103 -41 7 5 20
7 30 3 16 -6 16 -8 2 -29 -10 -13 -27 -22 -41 -22 -18 0 -24 -5 -22 -17 2 -12
-5 -16 -32 -17 -32 -1 -35 2 -46 39 -15 50 -17 95 -4 95 6 0 10 -5 10 -11z
m250 -45 c0 -8 -4 -12 -10 -9 -5 3 -10 10 -10 16 0 5 5 9 10 9 6 0 10 -7 10
-16z m180 7 c0 -5 -7 -14 -15 -21 -12 -10 -18 -10 -31 1 -14 12 -14 14 3 20
26 11 43 11 43 0z m195 -1 c22 -8 25 -13 15 -24 -6 -8 -10 -23 -8 -33 2 -14
-4 -18 -32 -19 -19 0 -42 -4 -51 -8 -25 -11 -31 9 -9 29 11 10 20 26 20 36 0
10 8 20 18 22 9 3 18 5 19 6 1 0 14 -4 28 -9z m160 -50 c3 -5 -1 -10 -9 -10
-9 0 -16 5 -16 10 0 6 4 10 9 10 6 0 13 -4 16 -10z m-906 -34 c10 -11 8 -16
-9 -21 -26 -8 -33 -3 -24 19 8 20 18 20 33 2z m822 -2 c12 -14 11 -16 -5 -13
-11 2 -21 10 -24 17 -5 17 13 15 29 -4z m104 -24 c-3 -5 -13 -10 -21 -10 -8 0
-12 5 -9 10 3 6 13 10 21 10 8 0 12 -4 9 -10z m-715 -37 c0 -5 -30 -9 -66 -9
-41 -1 -61 2 -53 7 17 11 119 12 119 2z m-180 -22 c0 -11 -59 -26 -67 -18 -3
3 -2 10 2 16 8 13 65 15 65 2z m-460 -506 c0 -8 -4 -15 -9 -15 -5 0 -11 7 -15
15 -3 9 0 15 9 15 8 0 15 -7 15 -15z m360 -1256 c0 -6 -4 -7 -10 -4 -5 3 -10
11 -10 16 0 6 5 7 10 4 6 -3 10 -11 10 -16z m91 -61 c19 -24 25 -48 12 -48 -5
0 -21 11 -38 25 -25 21 -28 26 -15 35 20 13 19 13 41 -12z m393 -188 c87 -36
112 -60 121 -118 5 -34 3 -47 -11 -63 -26 -29 -54 -23 -99 21 -22 21 -60 50
-85 63 -55 29 -65 65 -29 103 12 13 24 24 26 24 3 0 37 -14 77 -30z m-184
-492 c17 -19 27 -48 16 -48 -2 0 -20 7 -39 15 -20 8 -43 12 -51 9 -21 -8 -20
5 1 28 22 24 48 23 73 -4z m-306 -39 c-9 -16 -20 -10 -32 16 -18 38 -15 41 13
15 13 -12 22 -27 19 -31z m-459 -34 c32 -33 32 -39 -2 -30 -29 7 -43 21 -43
43 0 19 17 14 45 -13z m545 11 c0 -8 -4 -18 -10 -21 -5 -3 -10 3 -10 14 0 12
5 21 10 21 6 0 10 -6 10 -14z m102 -79 c7 -7 29 -19 49 -29 20 -9 42 -29 50
-47 8 -16 50 -59 93 -95 44 -36 87 -79 97 -95 10 -16 58 -64 108 -106 91 -78
119 -121 102 -154 -10 -17 -50 -57 -52 -50 0 2 -2 16 -4 31 -4 30 -141 188
-162 188 -7 0 -13 9 -13 20 0 12 -9 24 -23 29 -12 5 -44 25 -70 45 -26 20 -53
36 -60 36 -7 0 -42 20 -77 45 -40 28 -71 43 -81 40 -13 -4 -18 1 -21 17 -2 19
-9 23 -35 23 -18 0 -33 4 -33 10 0 5 -14 22 -31 36 -23 18 -30 31 -25 45 5 17
16 19 91 21 54 1 89 -2 97 -10z m358 -80 c0 -18 -22 -1 -42 33 l-22 35 32 -29
c18 -17 32 -34 32 -39z m66 -54 c11 -12 13 -18 5 -21 -13 -4 -41 16 -41 29 0
14 17 10 36 -8z m55 -40 c13 -16 12 -17 -3 -4 -10 7 -18 15 -18 17 0 8 8 3 21
-13z m216 -95 c-3 -8 -6 -5 -6 6 -1 11 2 17 5 13 3 -3 4 -12 1 -19z m3 -76 l0
-33 -25 18 c-29 21 -33 60 -7 65 22 5 32 -9 32 -50z m88 -60 c15 -23 15 -24
-14 -20 -22 2 -30 9 -32 26 -5 31 24 27 46 -6z m-778 -47 c7 -9 10 -18 6 -22
-8 -9 -56 14 -56 27 0 15 36 12 50 -5z m920 -90 c0 -8 -7 -15 -16 -15 -14 0
-14 3 -4 15 7 8 14 15 16 15 2 0 4 -7 4 -15z m-364 -59 c3 -8 17 -17 31 -21
14 -3 62 -41 107 -83 45 -42 96 -89 114 -105 23 -19 32 -36 32 -57 0 -27 -3
-30 -32 -30 -54 0 -79 20 -100 79 -18 48 -27 57 -97 101 -118 74 -126 82 -112
108 13 25 49 30 57 8z m491 -78 l23 -21 -26 -24 c-34 -32 -42 -29 -42 15 0 58
9 64 45 30z m-149 -276 c2 -7 -2 -10 -12 -6 -9 3 -16 11 -16 16 0 13 23 5 28
-10z m52 -63 c0 -6 -4 -7 -10 -4 -5 3 -10 11 -10 16 0 6 5 7 10 4 6 -3 10 -11
10 -16z m-165 -7 c-3 -3 -11 0 -18 7 -9 10 -8 11 6 5 10 -3 15 -9 12 -12z
m125 -53 c0 -10 -4 -19 -10 -19 -5 0 -10 12 -10 26 0 14 4 23 10 19 6 -3 10
-15 10 -26z m256 -366 c-8 -8 -46 60 -45 82 0 13 9 3 25 -28 14 -27 23 -51 20
-54z m850 -134 c3 -6 1 -16 -5 -22 -9 -9 -14 -8 -21 3 -5 8 -10 18 -10 23 0
11 28 8 36 -4z m29 -39 c3 -5 2 -10 -4 -10 -5 0 -13 5 -16 10 -3 6 -2 10 4 10
5 0 13 -4 16 -10z m45 -141 c0 -11 -4 -17 -10 -14 -5 3 -10 15 -10 26 0 11 5
17 10 14 6 -3 10 -15 10 -26z m-35 -8 c3 -5 1 -12 -5 -16 -5 -3 -10 1 -10 9 0
18 6 21 15 7z m100 -91 c9 0 15 -10 15 -25 0 -31 -10 -32 -40 -1 -15 17 -20
31 -16 43 7 17 8 17 17 1 6 -10 17 -18 24 -18z m-91 -21 c-8 -13 -24 -1 -24
18 0 13 3 13 15 3 8 -7 12 -16 9 -21z m-94 -24 c0 -8 -4 -17 -10 -20 -6 -4
-10 5 -10 20 0 15 4 24 10 20 6 -3 10 -12 10 -20z m-6760 -99 c0 -3 -4 -8 -10
-11 -5 -3 -10 -1 -10 4 0 6 5 11 10 11 6 0 10 -2 10 -4z m210 -49 c0 -20 -1
-20 -16 -5 -9 9 -13 21 -9 27 10 16 25 3 25 -22z m6169 -348 c36 -35 44 -59
39 -120 l-3 -44 -50 -6 c-40 -5 -46 -8 -27 -14 12 -4 22 -14 22 -22 0 -22 -29
-73 -70 -123 -20 -25 -47 -62 -59 -82 -12 -20 -30 -40 -41 -43 -10 -3 -64 -55
-120 -115 -99 -107 -130 -129 -130 -92 1 36 40 194 60 238 24 56 25 77 4 110
-20 30 -15 36 38 43 39 6 43 9 51 43 6 26 22 48 53 73 24 20 44 42 44 49 0 30
26 37 96 26 53 -9 69 -8 75 2 17 27 9 57 -23 82 -30 23 -31 26 -11 26 12 0 35
-14 52 -31z m-69 -39 c12 -8 10 -10 -10 -10 -14 0 -32 5 -40 10 -12 8 -10 10
10 10 14 0 32 -5 40 -10z m-2995 -690 c3 -5 1 -10 -4 -10 -6 0 -11 5 -11 10 0
6 2 10 4 10 3 0 8 -4 11 -10z m-2052 -24 c12 -17 13 -26 4 -35 -17 -17 -50
-14 -43 4 3 8 -4 21 -15 29 -15 10 -17 15 -7 19 28 11 46 6 61 -17z m4597 -17
c0 -6 -16 -17 -35 -25 -42 -17 -45 -17 -45 -1 0 7 15 20 33 29 32 16 47 15 47
-3z m-4720 -9 c18 -11 13 -16 -23 -25 -20 -5 -27 -3 -27 7 0 28 22 36 50 18z
m261 -73 c-6 -6 -24 -11 -41 -12 -24 -2 -30 1 -26 12 3 8 6 21 6 29 0 11 6 11
35 -3 22 -11 32 -20 26 -26z m281 -219 c41 -44 49 -65 21 -53 -10 4 -31 10
-47 14 -24 5 -29 11 -31 44 -1 20 3 37 8 37 6 0 27 -19 49 -42z m72 -64 c4
-10 1 -14 -6 -12 -15 5 -23 28 -10 28 5 0 13 -7 16 -16z m3441 -104 c-3 -5
-11 -10 -16 -10 -6 0 -7 5 -4 10 3 6 11 10 16 10 6 0 7 -4 4 -10z m-650 -320
c3 -5 1 -10 -4 -10 -6 0 -11 5 -11 10 0 6 2 10 4 10 3 0 8 -4 11 -10z"/>
<path d="M7360 9435 c-10 -12 -10 -15 3 -15 19 0 31 16 18 24 -5 3 -14 -1 -21
-9z"/>
<path d="M7625 9410 c3 -5 11 -10 16 -10 6 0 7 5 4 10 -3 6 -11 10 -16 10 -6
0 -7 -4 -4 -10z"/>
<path d="M7075 9300 c3 -5 16 -10 28 -10 18 0 19 2 7 10 -20 13 -43 13 -35 0z"/>
<path d="M860 8150 c0 -5 5 -10 11 -10 5 0 7 5 4 10 -3 6 -8 10 -11 10 -2 0
-4 -4 -4 -10z"/>
<path d="M810 8126 c0 -9 5 -16 10 -16 6 0 10 4 10 9 0 6 -4 13 -10 16 -5 3
-10 -1 -10 -9z"/>
<path d="M955 8130 c-4 -7 -16 -10 -26 -7 -35 9 -20 -9 26 -31 38 -18 45 -19
45 -6 0 23 -36 58 -45 44z"/>
<path d="M877 8066 c13 -17 19 -20 21 -10 2 8 9 14 15 14 19 0 -16 20 -36 20
-17 0 -17 -1 0 -24z"/>
<path d="M781 8064 c0 -11 3 -14 6 -6 3 7 2 16 -1 19 -3 4 -6 -2 -5 -13z"/>
<path d="M730 8006 c0 -8 -7 -22 -16 -31 -11 -11 -13 -20 -7 -26 7 -7 17 -2
31 15 11 14 25 26 31 26 17 0 13 17 -5 24 -25 9 -34 7 -34 -8z"/>
<path d="M880 8011 c0 -15 28 -33 40 -26 7 5 5 12 -7 21 -21 16 -33 18 -33 5z"/>
<path d="M840 7981 c0 -6 5 -13 10 -16 6 -3 10 1 10 9 0 9 -4 16 -10 16 -5 0
-10 -4 -10 -9z"/>
<path d="M676 7915 c-3 -8 -3 -15 0 -15 3 0 12 7 20 15 13 13 13 15 1 15 -8 0
-17 -7 -21 -15z"/>
<path d="M795 7911 c-3 -5 -1 -12 5 -16 5 -3 10 1 10 9 0 18 -6 21 -15 7z"/>
<path d="M662 7862 c-7 -12 -10 -32 -7 -43 10 -32 27 -8 23 32 -3 33 -3 34
-16 11z"/>
<path d="M754 7831 c4 -6 16 -16 28 -22 15 -8 18 -8 14 0 -4 6 -16 16 -28 22
-15 8 -18 8 -14 0z"/>
<path d="M620 7791 c0 -5 -3 -16 -6 -25 -5 -12 0 -16 20 -16 24 0 25 2 14 25
-11 24 -28 34 -28 16z"/>
<path d="M705 7783 c-38 -20 -36 -18 -30 -36 4 -8 17 -18 31 -21 13 -4 24 -11
24 -16 0 -6 -14 -4 -30 5 -22 11 -35 13 -49 5 -11 -5 -21 -6 -23 -1 -2 4 -13
12 -26 15 -29 9 -41 -19 -18 -42 10 -10 16 -12 16 -4 0 17 17 15 24 -3 4 -10
-3 -20 -19 -27 -21 -10 -28 -8 -40 8 -14 18 -15 17 -13 -16 2 -25 9 -38 26
-45 24 -10 28 -20 12 -30 -6 -4 -6 -15 0 -31 14 -35 12 -44 -5 -44 -18 0 -19
-12 -3 -28 9 -9 9 -12 -1 -12 -9 0 -11 -9 -6 -31 7 -29 6 -30 -14 -20 -12 7
-21 16 -21 21 0 6 -4 10 -10 10 -5 0 0 -16 11 -35 16 -26 17 -34 6 -30 -11 5
-13 0 -10 -19 5 -27 -27 -52 -53 -42 -8 3 -31 -1 -50 -9 -26 -11 -34 -20 -34
-39 0 -16 -6 -26 -15 -26 -8 0 -15 -6 -15 -13 0 -8 -9 -22 -20 -32 -29 -26
-25 -32 22 -39 24 -4 52 -15 63 -25 11 -10 30 -22 42 -25 18 -6 24 -2 29 18 3
14 10 26 15 26 5 0 9 5 9 10 0 6 -9 10 -21 10 -11 0 -27 6 -35 14 -20 21 -17
28 6 16 16 -9 27 -7 50 10 26 19 32 28 32 50 0 3 -3 16 -7 30 -7 22 -6 23 8
12 14 -12 18 -9 31 17 9 16 17 39 19 50 2 11 11 29 21 40 14 15 17 30 13 56
-4 24 -2 35 7 35 6 0 17 5 24 12 10 10 7 15 -10 25 -21 12 -21 13 -3 12 43 -3
56 2 66 24 5 12 17 35 25 50 14 26 14 30 -2 48 -16 18 -16 19 4 19 23 0 29 19
11 37 -6 6 -11 17 -13 24 -1 8 -6 21 -11 31 -9 15 -13 15 -40 1z m-65 -153 c0
-5 -7 -10 -15 -10 -8 0 -15 5 -15 10 0 6 7 10 15 10 8 0 15 -4 15 -10z m35 0
c-3 -5 -11 -10 -16 -10 -6 0 -7 5 -4 10 3 6 11 10 16 10 6 0 7 -4 4 -10z"/>
<path d="M1512 7750 c0 -14 2 -19 5 -12 2 6 2 18 0 25 -3 6 -5 1 -5 -13z"/>
<path d="M1353 7706 c2 -6 13 -12 25 -14 16 -2 22 -10 22 -28 0 -13 5 -24 10
-24 10 0 15 16 10 35 -1 6 -3 15 -3 22 0 6 -15 13 -34 15 -20 3 -32 0 -30 -6z"/>
<path d="M746 7545 c4 -8 10 -15 15 -15 5 0 9 7 9 15 0 8 -7 15 -15 15 -9 0
-12 -6 -9 -15z"/>
<path d="M711 7488 c2 -13 -3 -34 -10 -46 -14 -26 -12 -35 6 -24 6 4 13 18 14
32 2 14 8 28 13 31 10 8 -1 29 -15 29 -6 0 -9 -10 -8 -22z"/>
<path d="M492 7348 c5 -15 28 -23 28 -10 0 5 -7 13 -16 16 -10 4 -14 1 -12 -6z"/>
<path d="M608 7273 c7 -3 16 -2 19 1 4 3 -2 6 -13 5 -11 0 -14 -3 -6 -6z"/>
<path d="M1137 7169 c7 -7 15 -10 18 -7 3 3 -2 9 -12 12 -14 6 -15 5 -6 -5z"/>
<path d="M1138 7133 c7 -3 16 -2 19 1 4 3 -2 6 -13 5 -11 0 -14 -3 -6 -6z"/>
<path d="M365 7120 c3 -5 15 -10 26 -10 11 0 17 5 14 10 -3 6 -15 10 -26 10
-11 0 -17 -4 -14 -10z"/>
<path d="M4331 7032 c-42 -85 -43 -89 -29 -122 20 -47 38 -60 103 -75 63 -15
58 -19 109 83 l37 74 -25 43 c-30 50 -80 85 -123 85 -26 0 -32 -7 -72 -88z"/>
<path d="M280 7029 c0 -5 5 -7 10 -4 6 3 10 8 10 11 0 2 -4 4 -10 4 -5 0 -10
-5 -10 -11z"/>
<path d="M400 6970 c0 -13 5 -18 15 -14 8 4 15 10 15 14 0 4 -7 10 -15 14 -10
4 -15 -1 -15 -14z"/>
<path d="M333 6932 c25 -28 21 -34 -13 -17 -33 17 -54 20 -45 5 3 -5 16 -10
27 -10 29 0 13 -14 -17 -16 -13 0 -31 -7 -40 -14 -18 -15 -20 -76 -3 -86 8 -5
9 3 5 29 -4 28 -2 37 9 37 8 0 14 3 14 8 0 4 17 7 38 7 26 0 39 -4 39 -13 0
-10 -9 -13 -34 -9 -28 5 -33 3 -33 -14 0 -10 6 -19 14 -19 9 0 17 -15 21 -40
5 -31 11 -40 26 -40 27 0 35 27 15 49 -21 23 -20 31 4 31 29 0 36 27 14 52
-14 15 -15 19 -4 14 8 -3 23 -9 33 -12 9 -4 17 -9 17 -13 0 -4 9 -7 20 -7 24
0 26 9 5 26 -20 17 -19 30 3 30 13 0 14 2 4 9 -7 4 -23 6 -36 4 -12 -3 -40 3
-61 11 -37 16 -38 16 -22 -2z"/>
<path d="M1020 6911 c0 -17 5 -33 12 -37 7 -5 3 -11 -13 -18 l-24 -10 29 -4
c37 -5 50 15 29 47 l-16 24 32 -22 c27 -20 32 -20 37 -7 8 22 -13 45 -35 39
-10 -3 -22 0 -25 6 -13 20 -26 11 -26 -18z"/>
<path d="M1075 6820 c-4 -6 -10 -8 -15 -5 -12 7 -60 -5 -60 -15 0 -4 9 -10 20
-13 13 -3 18 -10 14 -21 -12 -32 13 -15 35 24 12 22 20 40 17 40 -3 0 -8 -5
-11 -10z"/>
<path d="M240 6750 c-13 -8 -12 -10 3 -10 9 0 17 5 17 10 0 12 -1 12 -20 0z"/>
<path d="M282 6686 c-2 -22 -5 -54 -5 -71 -1 -16 -5 -33 -10 -36 -14 -11 5
-39 27 -39 16 0 25 9 34 33 7 18 12 41 12 50 0 9 7 17 17 17 14 0 14 2 -2 20
-15 16 -15 22 -5 35 10 13 9 15 -9 15 -12 0 -30 4 -39 9 -14 8 -18 3 -20 -33z"/>
<path d="M970 6689 c0 -5 5 -7 10 -4 6 3 10 8 10 11 0 2 -4 4 -10 4 -5 0 -10
-5 -10 -11z"/>
<path d="M400 6640 c0 -5 7 -10 16 -10 8 0 12 5 9 10 -3 6 -10 10 -16 10 -5 0
-9 -4 -9 -10z"/>
<path d="M190 6544 c0 -8 5 -12 10 -9 6 4 8 11 5 16 -9 14 -15 11 -15 -7z"/>
<path d="M190 6500 c0 -5 5 -10 11 -10 5 0 7 5 4 10 -3 6 -8 10 -11 10 -2 0
-4 -4 -4 -10z"/>
<path d="M360 6500 c0 -5 5 -10 11 -10 5 0 7 5 4 10 -3 6 -8 10 -11 10 -2 0
-4 -4 -4 -10z"/>
<path d="M10765 5948 c2 -10 -1 -18 -6 -18 -12 0 -12 -247 1 -255 6 -3 10 -22
10 -41 0 -19 5 -43 12 -54 10 -15 10 -27 -1 -57 -18 -56 -53 -123 -63 -123 -4
0 -8 -9 -8 -20 0 -24 -32 -82 -64 -117 -13 -14 -27 -44 -30 -66 -4 -23 -11
-46 -15 -52 -25 -30 -62 -108 -57 -121 3 -7 -3 -18 -14 -24 -18 -10 -20 -22
-20 -139 0 -71 -5 -153 -11 -182 -6 -30 -10 -90 -10 -134 2 -78 -9 -149 -50
-325 -10 -47 -19 -102 -19 -122 0 -24 -14 -60 -40 -107 -23 -40 -40 -84 -40
-101 0 -17 -13 -57 -29 -88 -16 -31 -34 -75 -39 -97 -5 -22 -24 -78 -42 -125
-18 -47 -33 -95 -32 -108 0 -12 -12 -35 -27 -50 -15 -15 -37 -52 -49 -83 -11
-31 -53 -107 -91 -169 -39 -62 -87 -142 -108 -179 -20 -36 -46 -82 -58 -101
-12 -19 -31 -63 -41 -97 -11 -35 -22 -63 -26 -63 -7 0 -63 -83 -117 -173 -13
-21 -20 -44 -17 -52 3 -9 -6 -23 -24 -36 -16 -12 -36 -40 -45 -61 -8 -21 -22
-41 -30 -44 -8 -4 -15 -14 -15 -24 0 -10 -5 -20 -12 -22 -7 -3 -13 -18 -13
-34 -1 -19 -8 -30 -19 -32 -20 -4 -56 -37 -56 -52 0 -5 -15 -27 -34 -47 -18
-21 -41 -53 -50 -70 -9 -18 -29 -39 -45 -47 -18 -10 -34 -31 -45 -60 -10 -25
-25 -48 -35 -51 -32 -10 -136 -108 -157 -147 -8 -15 -34 -41 -59 -58 -25 -17
-45 -35 -45 -40 0 -6 -18 -21 -40 -35 -22 -14 -71 -54 -109 -88 -37 -34 -96
-78 -130 -97 -83 -46 -110 -70 -115 -100 -3 -14 -5 -27 -5 -29 -1 -2 -7 1 -14
7 -10 9 -19 8 -34 -3 -12 -8 -28 -12 -36 -9 -9 3 -25 0 -37 -6 -19 -10 -21
-19 -18 -62 3 -47 1 -51 -20 -53 -12 -1 -39 -18 -60 -37 -49 -46 -122 -88
-155 -88 -15 0 -27 -4 -27 -10 0 -41 -93 -67 -121 -34 -12 14 -14 14 -21 -5
-4 -12 -18 -25 -31 -30 -12 -5 -29 -16 -36 -25 -7 -9 -24 -16 -37 -16 -15 0
-24 -6 -24 -15 0 -20 -42 -37 -52 -21 -8 12 -67 9 -84 -5 -7 -5 -14 -23 -17
-39 -5 -21 -14 -31 -32 -36 -14 -3 -25 -13 -25 -21 0 -12 -8 -14 -39 -9 -38 6
-40 4 -58 -32 -15 -32 -23 -37 -56 -40 -21 -2 -53 -12 -70 -23 -18 -10 -43
-19 -57 -19 -20 0 -22 -2 -10 -10 11 -7 7 -10 -17 -10 -26 0 -33 4 -33 20 0
11 -4 20 -10 20 -5 0 -10 -7 -10 -15 0 -8 -9 -15 -20 -15 -11 0 -20 -7 -20
-15 0 -8 -7 -15 -15 -15 -8 0 -19 -9 -25 -20 -6 -11 -16 -18 -22 -14 -5 4 -13
1 -17 -5 -6 -9 -15 -9 -35 -1 -18 6 -34 7 -45 0 -10 -5 -21 -7 -23 -4 -10 9
-98 -35 -98 -50 0 -9 -14 -16 -37 -19 -150 -21 -232 -57 -204 -90 6 -8 6 -18
0 -27 -8 -13 -12 -11 -29 10 -19 23 -21 24 -34 8 -7 -10 -26 -18 -43 -18 -17
0 -75 -14 -129 -31 -120 -38 -342 -55 -368 -28 -20 19 -62 10 -74 -16 -11 -24
-42 -35 -42 -15 0 7 -14 8 -37 4 -49 -9 -58 -14 -42 -25 10 -6 5 -9 -16 -9
-51 0 -177 -19 -207 -31 -38 -16 -496 -5 -663 15 -225 27 -227 27 -233 48 -4
17 -5 17 -17 1 -11 -15 -17 -15 -39 -5 -30 13 -35 46 -8 61 13 8 8 10 -27 11
l-43 0 17 -26 c9 -14 15 -28 12 -30 -9 -9 -35 8 -47 31 -20 37 -79 71 -146 85
-32 6 -76 16 -96 22 -29 8 -41 8 -53 -2 -13 -10 -15 -9 -15 7 0 15 -21 31 -81
62 -68 35 -86 40 -120 35 -26 -4 -39 -3 -39 5 0 14 -37 14 -46 0 -9 -15 -72
-4 -95 17 -11 9 -19 25 -19 35 0 20 -123 83 -185 95 -20 3 -49 17 -64 29 -19
17 -35 22 -55 18 -18 -4 -36 1 -54 14 -42 30 -150 83 -172 83 -10 0 -22 5 -26
11 -3 6 -18 9 -32 6 -19 -4 -41 5 -78 29 -37 25 -62 34 -92 34 -22 0 -42 5
-44 11 -2 5 -35 13 -73 17 -53 5 -70 11 -70 22 0 23 -64 84 -114 109 -23 13
-57 36 -75 52 -38 37 -103 79 -119 79 -7 0 -33 20 -57 45 -27 27 -53 45 -67
45 -13 0 -23 6 -23 14 0 21 -40 28 -40 8 -1 -15 -2 -15 -11 0 -5 10 -17 18
-24 18 -9 0 -15 9 -15 21 0 14 -5 19 -14 16 -20 -8 -36 13 -36 45 0 25 -3 28
-24 22 -21 -5 -24 -3 -19 14 3 14 -1 21 -16 25 -13 3 -21 13 -21 26 0 15 -14
28 -50 46 -36 18 -50 31 -50 46 0 12 -22 41 -52 70 -43 40 -50 51 -38 59 11 7
12 13 5 23 -5 8 -23 32 -40 55 -33 46 -45 52 -45 22 0 -29 -27 -25 -61 9 -21
22 -29 39 -29 66 0 38 -34 97 -43 73 -6 -18 -47 20 -47 44 0 10 -5 18 -11 18
-10 0 -59 37 -102 77 -10 10 -20 29 -24 43 -3 14 -14 34 -24 45 -9 11 -42 48
-73 82 -31 35 -56 69 -56 77 0 8 -8 21 -18 28 -27 19 -97 119 -109 153 -5 17
-22 36 -36 43 -15 7 -27 20 -27 28 0 20 -35 87 -71 137 -16 22 -29 46 -29 52
0 7 -9 15 -20 18 -13 3 -20 14 -20 29 0 13 -7 33 -15 44 -8 10 -15 25 -15 33
0 7 -13 29 -30 47 -16 19 -33 47 -37 62 -3 15 -15 41 -25 57 -10 17 -18 37
-18 46 0 9 -11 36 -24 60 -14 24 -39 81 -56 126 -17 45 -38 87 -46 93 -8 7
-14 21 -14 31 0 10 -4 21 -10 24 -5 3 -10 18 -10 33 0 15 -14 54 -30 87 -16
33 -30 71 -30 84 0 14 -8 33 -17 43 -10 11 -18 29 -19 41 -3 42 -16 75 -32 81
-10 3 -23 9 -31 12 -10 5 -12 2 -8 -10 4 -10 1 -16 -9 -16 -8 0 -13 4 -10 9 3
5 -4 11 -15 14 -21 6 -21 3 -15 -54 7 -55 6 -59 -14 -59 -11 0 -20 6 -20 14 0
8 -9 21 -20 29 -13 9 -19 23 -18 38 2 17 -4 27 -20 34 -12 5 -22 17 -22 26 0
9 -7 19 -15 23 -10 4 -15 -1 -15 -15 0 -10 -11 -37 -25 -59 -18 -28 -23 -48
-19 -65 4 -16 2 -25 -6 -25 -6 0 -8 -5 -4 -12 4 -6 9 -37 10 -67 6 -107 82
-333 179 -528 44 -90 55 -121 55 -161 0 -30 5 -54 14 -61 7 -6 16 -31 18 -55
5 -42 39 -108 94 -186 15 -21 24 -44 21 -57 -2 -13 2 -28 9 -34 8 -6 14 -18
14 -26 0 -16 37 -86 80 -153 32 -51 38 -80 14 -80 -8 0 -12 5 -9 10 3 5 1 10
-4 10 -6 0 -11 -4 -11 -9 0 -6 -12 -6 -30 0 -19 7 -30 18 -30 29 0 12 -9 20
-22 22 -14 2 -29 16 -38 34 -27 54 -56 87 -69 80 -17 -11 9 -50 67 -103 34
-32 42 -43 28 -43 -15 0 -16 -3 -6 -15 7 -8 22 -15 35 -15 12 0 34 -11 49 -25
21 -19 33 -23 57 -18 21 4 34 1 40 -8 14 -22 11 -37 -8 -42 -10 -3 -3 -5 14
-6 43 -1 69 -29 78 -80 4 -27 13 -42 26 -46 10 -4 22 -17 25 -30 3 -13 14 -27
24 -30 10 -3 25 -26 35 -51 16 -42 19 -45 51 -42 38 3 71 -23 115 -90 15 -24
47 -65 71 -93 138 -157 126 -146 121 -112 -5 34 15 57 23 27 3 -11 15 -44 27
-74 16 -39 27 -54 39 -52 9 1 22 -6 28 -17 6 -12 16 -18 25 -15 9 4 16 -3 20
-19 8 -29 45 -68 45 -47 0 24 39 -21 42 -49 2 -14 8 -25 13 -23 6 2 12 -7 15
-20 7 -26 38 -37 52 -16 5 8 6 3 2 -14 -5 -23 0 -34 27 -59 l33 -31 9 24 c9
22 9 22 18 3 5 -11 13 -33 19 -48 8 -24 13 -26 29 -17 25 13 31 13 31 -1 0 -6
22 -32 48 -57 27 -26 52 -56 57 -67 8 -19 9 -19 12 3 3 12 8 22 13 22 16 0 38
-30 45 -60 8 -34 31 -40 40 -10 6 20 6 20 36 -1 16 -11 29 -28 29 -37 0 -9 9
-32 20 -50 16 -27 24 -31 34 -23 11 9 19 4 37 -26 12 -21 24 -40 26 -42 1 -2
11 3 22 13 16 14 20 15 30 2 7 -8 35 -29 62 -47 31 -19 58 -47 70 -70 20 -41
36 -49 45 -24 4 8 12 15 20 15 19 0 74 -78 74 -106 0 -13 5 -26 10 -29 6 -3
10 1 10 9 0 23 15 27 46 12 16 -9 40 -12 56 -9 22 4 39 -2 73 -26 25 -18 67
-39 94 -47 28 -8 53 -19 56 -24 4 -6 17 -7 30 -4 16 4 30 -1 46 -17 16 -16 33
-22 55 -20 21 1 40 -5 60 -21 31 -26 89 -49 168 -68 27 -6 62 -20 78 -31 16
-12 45 -25 66 -30 106 -28 306 -95 370 -125 40 -19 86 -34 102 -34 17 0 39 -9
51 -21 11 -11 27 -18 34 -15 8 3 17 1 20 -4 4 -6 13 -6 26 0 22 12 129 -8 129
-24 0 -4 13 -6 30 -3 16 4 44 0 64 -8 20 -8 63 -15 96 -15 47 0 60 -3 60 -15
0 -17 21 -20 36 -5 6 6 73 3 194 -10 625 -67 1074 -45 1705 81 176 35 358 89
480 142 39 16 101 36 138 43 93 18 343 119 569 230 216 107 353 184 528 299
69 44 150 94 180 110 30 16 77 49 104 73 27 23 55 41 63 38 19 -8 104 36 99
50 -3 7 15 24 40 39 28 16 44 33 44 45 0 14 16 28 51 45 36 19 54 36 64 59 15
36 68 86 91 86 8 0 14 10 14 23 0 14 19 39 55 70 30 27 55 54 55 61 0 7 12 23
26 37 14 13 30 34 35 46 6 16 17 23 34 23 24 0 29 7 26 40 -1 9 10 27 23 39
14 13 30 38 36 55 6 18 31 48 60 71 28 22 50 43 50 48 0 4 19 27 43 51 97 97
161 176 222 269 11 16 52 62 91 101 67 66 133 155 195 262 14 25 41 61 61 82
19 20 44 53 56 73 12 19 32 47 44 61 29 32 78 121 78 142 0 9 8 16 20 16 13 0
20 7 20 20 0 10 5 30 11 43 8 17 8 30 1 43 -8 15 -6 25 9 43 10 13 19 29 19
36 0 7 7 15 15 19 8 3 15 17 15 31 0 14 5 25 10 25 6 0 10 5 10 11 0 6 6 25
14 42 7 18 23 57 36 87 12 30 45 101 72 158 26 56 51 124 55 150 3 26 14 63
23 82 10 20 21 57 25 82 4 26 14 53 22 59 20 17 43 76 43 111 0 17 7 56 15 88
8 32 17 98 20 147 3 48 9 106 15 128 5 22 10 76 10 120 0 45 5 86 11 92 15 15
28 180 18 217 -5 17 -6 65 -3 108 5 60 3 86 -12 127 -16 45 -16 56 -5 94 20
66 25 127 11 153 -8 13 -10 36 -6 55 4 23 1 37 -10 50 -9 10 -17 37 -17 61 -1
24 -6 46 -12 50 -6 4 -6 17 1 35 10 27 6 53 -18 131 -5 19 -6 38 -1 45 10 14
9 75 -2 100 -4 9 -4 33 -1 52 4 21 3 35 -3 35 -5 0 -11 6 -14 13 -2 6 -3 4 -2
-5z m-8612 -4132 c6 -16 -2 -28 -14 -20 -12 7 -11 34 0 34 5 0 11 -6 14 -14z
m6347 -526 c0 -5 -4 -10 -9 -10 -6 0 -13 5 -16 10 -3 6 1 10 9 10 9 0 16 -4
16 -10z m-5510 -260 l35 -33 -50 27 c-27 15 -61 36 -75 46 l-25 20 40 -14 c22
-7 56 -28 75 -46z m3655 -629 c-3 -6 -11 -11 -17 -11 -6 0 -6 6 2 15 14 17 26
13 15 -4z"/>
<path d="M6674 4839 c-12 -21 11 -30 46 -17 30 10 31 12 14 19 -28 11 -52 10
-60 -2z"/>
<path d="M2097 3004 c-3 -6 -3 -29 0 -53 4 -32 12 -45 29 -53 37 -17 38 -5 6
58 -16 31 -32 53 -35 48z"/>
<path d="M2330 2931 c5 -11 10 -36 10 -55 0 -29 4 -36 20 -36 15 0 20 -7 20
-25 0 -16 -6 -25 -15 -25 -8 0 -15 -2 -15 -5 0 -18 48 -96 78 -128 21 -22 41
-55 47 -79 7 -27 17 -44 31 -49 20 -7 22 -5 19 26 -5 56 -14 73 -34 68 -15 -4
-20 5 -29 53 -7 31 -12 68 -12 81 0 18 -6 23 -24 23 -19 0 -25 6 -29 33 -16
88 -21 103 -41 119 -28 23 -39 23 -26 -1z"/>
<path d="M2140 2680 c0 -5 5 -10 10 -10 6 0 10 5 10 10 0 6 -4 10 -10 10 -5 0
-10 -4 -10 -10z"/>
<path d="M2561 2564 c0 -11 3 -14 6 -6 3 7 2 16 -1 19 -3 4 -6 -2 -5 -13z"/>
<path d="M4895 2490 c3 -5 14 -10 23 -10 15 0 15 2 2 10 -20 13 -33 13 -25 0z"/>
<path d="M5790 2487 c-144 -53 -221 -182 -188 -311 12 -46 18 -53 78 -89 35
-22 82 -42 102 -45 50 -6 55 -17 24 -46 -32 -29 -33 -46 -3 -46 16 0 31 12 48
37 16 25 34 39 54 43 40 9 123 57 135 80 6 10 10 29 10 41 0 12 11 37 25 55
23 30 24 36 16 104 -11 84 -31 120 -67 120 -15 0 -38 12 -55 30 -24 23 -41 30
-87 35 -36 3 -70 0 -92 -8z"/>
<path d="M2596 2432 c7 -16 23 -37 34 -47 26 -24 25 -33 -7 -67 l-27 -28 34
-35 c38 -39 58 -43 98 -18 37 24 44 36 26 46 -9 5 -12 16 -8 32 5 20 0 28 -26
42 -18 10 -55 37 -82 61 -27 23 -50 42 -53 42 -2 0 3 -13 11 -28z"/>
<path d="M988 2353 c6 -2 18 -2 25 0 6 3 1 5 -13 5 -14 0 -19 -2 -12 -5z"/>
<path d="M2164 2328 c-26 -12 -44 -48 -44 -89 0 -21 12 -42 38 -70 31 -34 44
-41 76 -41 51 0 77 27 83 86 6 51 -13 91 -50 105 -42 15 -82 19 -103 9z"/>
<path d="M1070 2295 c0 -8 9 -15 20 -15 11 0 20 2 20 5 0 2 -9 9 -20 15 -16 9
-20 8 -20 -5z"/>
<path d="M5255 2260 c-3 -5 1 -10 9 -10 8 0 18 5 21 10 3 6 -1 10 -9 10 -8 0
-18 -4 -21 -10z"/>
<path d="M2730 2196 c0 -4 16 -20 35 -37 19 -17 37 -39 40 -50 8 -23 61 -53
81 -45 8 3 14 14 14 25 0 15 -9 22 -36 27 -39 7 -53 26 -35 48 9 11 5 15 -18
19 -16 3 -40 9 -55 13 -14 3 -26 3 -26 0z"/>
<path d="M6811 2144 c-11 -15 -21 -32 -21 -38 0 -23 25 -46 56 -52 45 -9 76
23 72 74 -3 36 -5 37 -44 40 -35 3 -45 -1 -63 -24z"/>
<path d="M6996 2145 c-19 -19 -21 -56 -4 -73 33 -33 102 7 96 56 -3 23 -8 27
-39 30 -24 2 -42 -3 -53 -13z"/>
<path d="M2553 2073 c-18 -7 -16 -38 2 -53 21 -17 45 -5 45 24 0 18 -21 41
-33 35 -1 0 -8 -3 -14 -6z"/>
<path d="M6595 2030 c-3 -5 -1 -10 4 -10 6 0 11 5 11 10 0 6 -2 10 -4 10 -3 0
-8 -4 -11 -10z"/>
<path d="M5705 2020 c3 -5 11 -10 16 -10 6 0 7 5 4 10 -3 6 -11 10 -16 10 -6
0 -7 -4 -4 -10z"/>
<path d="M5920 1996 c0 -22 23 -56 38 -56 24 0 62 28 62 46 0 10 -13 14 -50
14 -27 0 -50 -2 -50 -4z"/>
<path d="M5655 1970 c-4 -6 9 -10 31 -10 42 0 42 4 2 14 -15 3 -30 2 -33 -4z"/>
<path d="M2805 1940 c3 -5 8 -10 11 -10 2 0 4 5 4 10 0 6 -5 10 -11 10 -5 0
-7 -4 -4 -10z"/>
<path d="M3127 1933 c-19 -18 -5 -41 32 -51 51 -16 53 -15 41 8 -6 11 -16 20
-22 20 -6 0 -19 7 -28 15 -9 8 -20 12 -23 8z"/>
<path d="M2968 1839 c-37 -21 -12 -89 32 -89 24 0 42 33 38 68 -2 20 -9 28
-28 29 -14 2 -33 -2 -42 -8z"/>
<path d="M7790 1760 c0 -5 5 -10 10 -10 6 0 10 5 10 10 0 6 -4 10 -10 10 -5 0
-10 -4 -10 -10z"/>
<path d="M2920 1594 c-18 -20 -1 -67 25 -72 22 -5 45 23 45 54 0 34 -47 46
-70 18z"/>
<path d="M2666 1441 c-9 -14 22 -34 40 -27 13 5 14 9 4 21 -14 17 -36 20 -44
6z"/>
<path d="M3805 1428 c-36 -20 -65 -51 -65 -70 0 -13 17 -27 57 -45 54 -25 57
-25 70 -8 17 25 16 42 -7 93 -20 45 -24 47 -55 30z"/>
<path d="M3888 1200 c-65 -11 -71 -17 -65 -57 8 -47 33 -83 58 -83 11 0 34 -7
50 -16 25 -13 30 -20 25 -40 -8 -32 3 -30 56 10 62 48 74 87 43 145 -23 46
-70 57 -167 41z"/>
</g>
</svg>
